<svg width="1440" height="820" viewBox="0 0 1440 820" fill="none" xmlns="http://www.w3.org/2000/svg">
<path d="M-12 -19H1451V766.351C1451 766.351 1144 887.061 719.5 766.351C295 645.642 273.669 766.351 -12 766.351V-19Z" fill="#642BFF"/>
<path d="M-12 -19H1451V766.351C1451 766.351 1144 887.061 719.5 766.351C295 645.642 273.669 766.351 -12 766.351V-19Z" fill="url(#paint0_linear_345_2)"/>
<path d="M-12 -19H1451V766.351C1451 766.351 1144 887.061 719.5 766.351C295 645.642 273.669 766.351 -12 766.351V-19Z" fill="url(#paint1_linear_345_2)"/>
<path d="M289.361 208.505C786.131 113.688 1011.84 434.245 1364.67 208.505C1717.49 -17.234 1748.41 486.209 1364.67 441.331C980.923 396.453 874.423 53.9633 289.361 441.331C-295.702 828.699 -207.41 303.323 289.361 208.505Z" fill="url(#paint2_linear_345_2)"/>
<defs>
<linearGradient id="paint0_linear_345_2" x1="215.908" y1="819.704" x2="1062.7" y2="63.4235" gradientUnits="userSpaceOnUse">
<stop stop-color="#410DCE"/>
<stop offset="1" stop-color="#410DCE" stop-opacity="0"/>
</linearGradient>
<linearGradient id="paint1_linear_345_2" x1="215.908" y1="819.704" x2="1062.7" y2="63.4235" gradientUnits="userSpaceOnUse">
<stop stop-color="#410DCE"/>
<stop offset="1" stop-color="#410DCE" stop-opacity="0"/>
</linearGradient>
<linearGradient id="paint2_linear_345_2" x1="762" y1="150" x2="1017" y2="827.5" gradientUnits="userSpaceOnUse">
<stop stop-color="#4D1AD6"/>
<stop offset="0.191161" stop-color="#642BFF" stop-opacity="0"/>
</linearGradient>
</defs>
</svg>
