<svg width="10" height="10" viewBox="0 0 10 10" fill="none" xmlns="http://www.w3.org/2000/svg">
<path d="M5 0C2.23884 0 0 2.23884 0 5C0 7.76116 2.23884 10 5 10C7.76116 10 10 7.76116 10 5C10 2.23884 7.76116 0 5 0ZM5 9.15179C2.70759 9.15179 0.848214 7.29241 0.848214 5C0.848214 2.70759 2.70759 0.848214 5 0.848214C7.29241 0.848214 9.15179 2.70759 9.15179 5C9.15179 7.29241 7.29241 9.15179 5 9.15179ZM5.0625 3.20647C5.65402 3.20647 6.0558 3.58371 6.10045 4.13728C6.10379 4.18415 6.14286 4.21987 6.18973 4.21987H6.82254C6.85156 4.21987 6.875 4.19643 6.875 4.16741C6.875 3.19978 6.11161 2.52232 5.05915 2.52232C3.83259 2.52232 3.125 3.35045 3.125 4.71875V5.30245C3.125 6.66071 3.83259 7.47768 5.05915 7.47768C6.10826 7.47768 6.875 6.82143 6.875 5.89955C6.875 5.87054 6.85156 5.8471 6.82254 5.8471H6.18862C6.14174 5.8471 6.10379 5.88281 6.09933 5.92857C6.05246 6.44308 5.65179 6.79688 5.06138 6.79688C4.33259 6.79688 3.92188 6.26228 3.92188 5.3058V4.71875C3.92299 3.74777 4.33482 3.20647 5.0625 3.20647Z" fill="#170055"/>
</svg>
