<svg width="31" height="31" viewBox="0 0 31 31" fill="none" xmlns="http://www.w3.org/2000/svg">
<path d="M29.76 0H1.24C0.554125 0 0 0.554125 0 1.24V29.76C0 30.4459 0.554125 31 1.24 31H29.76C30.4459 31 31 30.4459 31 29.76V1.24C31 0.554125 30.4459 0 29.76 0ZM26.1795 9.04813H23.7034C21.762 9.04813 21.3861 9.97038 21.3861 11.3266V14.3142H26.0206L25.4161 18.9914H21.3861V31H16.554V18.9953H12.5124V14.3142H16.554V10.8655C16.554 6.86262 18.9991 4.681 22.5719 4.681C24.2846 4.681 25.7533 4.80888 26.1834 4.867V9.04813H26.1795Z" fill="#170055"/>
</svg>
