<svg width="73" height="72" viewBox="0 0 73 72" fill="none" xmlns="http://www.w3.org/2000/svg">
<path d="M8.6 35.48C6.008 35.48 4.024 34.744 2.648 33.272C1.272 31.8 0.584 29.72 0.584 27.032V9.368C0.584 6.68 1.272 4.6 2.648 3.128C4.024 1.656 6.008 0.919998 8.6 0.919998C11.192 0.919998 13.176 1.656 14.552 3.128C15.928 4.6 16.616 6.68 16.616 9.368V27.032C16.616 29.72 15.928 31.8 14.552 33.272C13.176 34.744 11.192 35.48 8.6 35.48ZM8.6 30.68C10.424 30.68 11.336 29.576 11.336 27.368V9.032C11.336 6.824 10.424 5.72 8.6 5.72C6.776 5.72 5.864 6.824 5.864 9.032V27.368C5.864 29.576 6.776 30.68 8.6 30.68ZM26.6667 1.4H41.0668V6.2H31.9467V15.08H39.1948V19.88H31.9467V30.2H41.0668V35H26.6667V1.4ZM50.5842 1.4H58.1202L61.4802 25.448H61.5762L64.9362 1.4H72.4722V35H67.4802V9.56H67.3843L63.5443 35H59.1282L55.2882 9.56H55.1922V35H50.5842V1.4ZM0.968 38.4H8.936C11.656 38.4 13.64 39.04 14.888 40.32C16.136 41.568 16.76 43.504 16.76 46.128V47.472C16.76 49.2 16.472 50.608 15.896 51.696C15.352 52.784 14.504 53.568 13.352 54.048V54.144C15.976 55.04 17.288 57.376 17.288 61.152V64.032C17.288 66.624 16.6 68.608 15.224 69.984C13.88 71.328 11.896 72 9.272 72H0.968V38.4ZM8.312 52.08C9.368 52.08 10.152 51.808 10.664 51.264C11.208 50.72 11.48 49.808 11.48 48.528V46.656C11.48 45.44 11.256 44.56 10.808 44.016C10.392 43.472 9.72 43.2 8.792 43.2H6.248V52.08H8.312ZM9.272 67.2C10.2 67.2 10.888 66.96 11.336 66.48C11.784 65.968 12.008 65.104 12.008 63.888V60.96C12.008 59.424 11.736 58.368 11.192 57.792C10.68 57.184 9.816 56.88 8.6 56.88H6.248V67.2H9.272ZM30.9342 38.4H38.0862L43.5583 72H38.2783L37.3182 65.328V65.424H31.3182L30.3582 72H25.4622L30.9342 38.4ZM36.6942 60.864L34.3423 44.256H34.2462L31.9422 60.864H36.6942ZM52.5999 38.4H57.8799V52.08H63.5439V38.4H68.8239V72H63.5439V56.88H57.8799V72H52.5999V38.4Z" fill="#170055"/>
</svg>
