<svg width="15" height="17" viewBox="0 0 15 17" fill="none" xmlns="http://www.w3.org/2000/svg">
<path d="M14 7.13636C14 11.9091 7.5 16 7.5 16C7.5 16 1 11.9091 1 7.13636C1 5.5089 1.68482 3.94809 2.90381 2.7973C4.12279 1.64651 5.77609 1 7.5 1C9.22391 1 10.8772 1.64651 12.0962 2.7973C13.3152 3.94809 14 5.5089 14 7.13636Z" stroke="#170055" stroke-linecap="round" stroke-linejoin="round"/>
<path d="M7.49967 9.18181C8.69629 9.18181 9.66634 8.26603 9.66634 7.13636C9.66634 6.00669 8.69629 5.0909 7.49967 5.0909C6.30306 5.0909 5.33301 6.00669 5.33301 7.13636C5.33301 8.26603 6.30306 9.18181 7.49967 9.18181Z" stroke="#170055" stroke-linecap="round" stroke-linejoin="round"/>
</svg>
