<svg width="170" height="170" viewBox="0 0 170 170" fill="none" xmlns="http://www.w3.org/2000/svg">
<g filter="url(#filter0_d_49_92)">
<circle cx="85" cy="81" r="81" fill="white"/>
</g>
<path d="M46.8 77.64C43.344 77.64 40.6987 76.6587 38.864 74.696C37.0293 72.7333 36.112 69.96 36.112 66.376V42.824C36.112 39.24 37.0293 36.4667 38.864 34.504C40.6987 32.5413 43.344 31.56 46.8 31.56C50.256 31.56 52.9013 32.5413 54.736 34.504C56.5707 36.4667 57.488 39.24 57.488 42.824V66.376C57.488 69.96 56.5707 72.7333 54.736 74.696C52.9013 76.6587 50.256 77.64 46.8 77.64ZM46.8 71.24C49.232 71.24 50.448 69.768 50.448 66.824V42.376C50.448 39.432 49.232 37.96 46.8 37.96C44.368 37.96 43.152 39.432 43.152 42.376V66.824C43.152 69.768 44.368 71.24 46.8 71.24ZM70.889 32.2H90.089V38.6H77.929V50.44H87.593V56.84H77.929V70.6H90.089V77H70.889V32.2ZM102.779 32.2H112.827L117.307 64.264H117.435L121.915 32.2H131.963V77H125.307V43.08H125.179L120.059 77H114.171L109.051 43.08H108.923V77H102.779V32.2ZM36.624 82.2H47.248C50.8747 82.2 53.52 83.0533 55.184 84.76C56.848 86.424 57.68 89.0053 57.68 92.504V94.296C57.68 96.6 57.296 98.4773 56.528 99.928C55.8027 101.379 54.672 102.424 53.136 103.064V103.192C56.6347 104.387 58.384 107.501 58.384 112.536V116.376C58.384 119.832 57.4667 122.477 55.632 124.312C53.84 126.104 51.1947 127 47.696 127H36.624V82.2ZM46.416 100.44C47.824 100.44 48.8693 100.077 49.552 99.352C50.2773 98.6267 50.64 97.4107 50.64 95.704V93.208C50.64 91.5867 50.3413 90.4133 49.744 89.688C49.1893 88.9627 48.2933 88.6 47.056 88.6H43.664V100.44H46.416ZM47.696 120.6C48.9333 120.6 49.8507 120.28 50.448 119.64C51.0453 118.957 51.344 117.805 51.344 116.184V112.28C51.344 110.232 50.9813 108.824 50.256 108.056C49.5733 107.245 48.4213 106.84 46.8 106.84H43.664V120.6H47.696ZM76.579 82.2H86.115L93.411 127H86.371L85.091 118.104V118.232H77.091L75.811 127H69.283L76.579 82.2ZM84.259 112.152L81.123 90.008H80.995L77.923 112.152H84.259ZM105.466 82.2H112.506V100.44H120.059V82.2H127.098V127H120.059V106.84H112.506V127H105.466V82.2Z" fill="#170055"/>
<defs>
<filter id="filter0_d_49_92" x="0" y="0" width="170" height="170" filterUnits="userSpaceOnUse" color-interpolation-filters="sRGB">
<feFlood flood-opacity="0" result="BackgroundImageFix"/>
<feColorMatrix in="SourceAlpha" type="matrix" values="0 0 0 0 0 0 0 0 0 0 0 0 0 0 0 0 0 0 127 0" result="hardAlpha"/>
<feOffset dy="4"/>
<feGaussianBlur stdDeviation="2"/>
<feComposite in2="hardAlpha" operator="out"/>
<feColorMatrix type="matrix" values="0 0 0 0 0 0 0 0 0 0 0 0 0 0 0 0 0 0 0.25 0"/>
<feBlend mode="normal" in2="BackgroundImageFix" result="effect1_dropShadow_49_92"/>
<feBlend mode="normal" in="SourceGraphic" in2="effect1_dropShadow_49_92" result="shape"/>
</filter>
</defs>
</svg>
