<svg width="25" height="24" viewBox="0 0 25 24" fill="none" xmlns="http://www.w3.org/2000/svg">
<path d="M0 24L1.72829 17.837C0.66181 16.033 0.101423 13.988 0.102447 11.891C0.105521 5.335 5.57109 0 12.2865 0C15.5454 0.001 18.6044 1.24 20.9054 3.488C23.2054 5.736 24.4716 8.724 24.4706 11.902C24.4675 18.459 19.0019 23.794 12.2865 23.794C10.2478 23.793 8.23882 23.294 6.45931 22.346L0 24ZM6.75845 20.193C8.47547 21.188 10.1146 21.784 12.2824 21.785C17.8638 21.785 22.4104 17.351 22.4134 11.9C22.4155 6.438 17.8904 2.01 12.2906 2.008C6.70518 2.008 2.16164 6.442 2.15959 11.892C2.15857 14.117 2.82652 15.783 3.94832 17.526L2.92487 21.174L6.75845 20.193ZM18.4241 14.729C18.3483 14.605 18.1455 14.531 17.8402 14.382C17.5359 14.233 16.0392 13.514 15.7595 13.415C15.4808 13.316 15.278 13.266 15.0741 13.564C14.8713 13.861 14.2873 14.531 14.1101 14.729C13.9328 14.927 13.7546 14.952 13.4503 14.803C13.1461 14.654 12.1646 14.341 11.0018 13.328C10.0972 12.54 9.4856 11.567 9.30837 11.269C9.13114 10.972 9.28993 10.811 9.44155 10.663C9.57883 10.53 9.74582 10.316 9.89847 10.142C10.0532 9.97 10.1034 9.846 10.2058 9.647C10.3072 9.449 10.257 9.275 10.1802 9.126C10.1034 8.978 9.49483 7.515 9.24178 6.92C8.99386 6.341 8.74286 6.419 8.55641 6.41L7.97246 6.4C7.76961 6.4 7.43973 6.474 7.16107 6.772C6.88242 7.07 6.09562 7.788 6.09562 9.251C6.09562 10.714 7.18668 12.127 7.33831 12.325C7.49095 12.523 9.48458 15.525 12.5385 16.812C13.2649 17.118 13.8324 17.301 14.274 17.438C15.0034 17.664 15.6673 17.632 16.1918 17.556C16.7768 17.471 17.9928 16.837 18.2469 16.143C18.501 15.448 18.501 14.853 18.4241 14.729Z" fill="#170055"/>
</svg>
