<svg width="42" height="28" viewBox="0 0 42 28" fill="none" xmlns="http://www.w3.org/2000/svg">
<path d="M41.1006 4.3932C40.8629 3.54538 40.3999 2.77781 39.7609 2.17208C39.1038 1.54772 38.2985 1.10111 37.4209 0.874385C34.1364 0.00867248 20.9776 0.00867268 20.9776 0.00867268C15.4918 -0.0537415 10.0074 0.220771 4.55525 0.830662C3.67763 1.07413 2.87378 1.53073 2.21521 2.15984C1.56811 2.78245 1.0994 3.55022 0.85455 4.39145C0.266377 7.56004 -0.0193969 10.7773 0.0010794 14C-0.0199076 17.2197 0.265165 20.436 0.85455 23.6085C1.09415 24.4463 1.56111 25.2105 2.20996 25.8279C2.85881 26.4453 3.6668 26.8912 4.55525 27.1273C7.88344 27.9913 20.9776 27.9913 20.9776 27.9913C26.4703 28.0538 31.9617 27.7793 37.4209 27.1693C38.2985 26.9426 39.1038 26.496 39.7609 25.8716C40.408 25.2543 40.868 24.4865 41.0988 23.6505C41.7024 20.4831 41.9958 17.2645 41.975 14.0402C42.0204 10.8023 41.7273 7.56847 41.1006 4.39145V4.3932ZM16.7942 19.9883V8.01345L27.7424 14.0017L16.7942 19.9883Z" fill="#170055"/>
</svg>
